<svg width="100" height="26" viewBox="0 0 124 26" fill="none" xmlns="http://www.w3.org/2000/svg">
<path d="M17.4375 25H14.7812V14.2344H2.78125V25H0.125V2.15625H2.78125V11.8906H14.7812V2.15625H17.4375V25ZM37.4688 7.875V25H35.3438L34.9688 22.5938H34.8281C34.474 23.1875 34.0156 23.6875 33.4531 24.0938C32.8906 24.5 32.2552 24.8021 31.5469 25C30.849 25.2083 30.1042 25.3125 29.3125 25.3125C27.9583 25.3125 26.8229 25.0938 25.9062 24.6562C24.9896 24.2188 24.2969 23.5417 23.8281 22.625C23.3698 21.7083 23.1406 20.5312 23.1406 19.0938V7.875H25.7656V18.9062C25.7656 20.3333 26.0885 21.401 26.7344 22.1094C27.3802 22.8073 28.3646 23.1562 29.6875 23.1562C30.9583 23.1562 31.9688 22.9167 32.7188 22.4375C33.4792 21.9583 34.026 21.2552 34.3594 20.3281C34.6927 19.3906 34.8594 18.2448 34.8594 16.8906V7.875H37.4688ZM53.1094 4.17188C51.849 4.17188 50.7135 4.39062 49.7031 4.82812C48.7031 5.25521 47.849 5.88021 47.1406 6.70312C46.4427 7.51562 45.9062 8.5 45.5312 9.65625C45.1562 10.8125 44.9688 12.1146 44.9688 13.5625C44.9688 15.4792 45.2656 17.1458 45.8594 18.5625C46.4635 19.9688 47.3594 21.0573 48.5469 21.8281C49.7448 22.599 51.2396 22.9844 53.0312 22.9844C54.0521 22.9844 55.0104 22.901 55.9062 22.7344C56.8125 22.5573 57.6927 22.3385 58.5469 22.0781V24.3906C57.7135 24.7031 56.8385 24.9323 55.9219 25.0781C55.0052 25.2344 53.9167 25.3125 52.6562 25.3125C50.3333 25.3125 48.3906 24.8333 46.8281 23.875C45.276 22.9062 44.1094 21.5417 43.3281 19.7812C42.5573 18.0208 42.1719 15.9427 42.1719 13.5469C42.1719 11.8177 42.4115 10.2396 42.8906 8.8125C43.3802 7.375 44.0885 6.13542 45.0156 5.09375C45.9531 4.05208 47.099 3.25 48.4531 2.6875C49.8177 2.11458 51.3802 1.82812 53.1406 1.82812C54.2969 1.82812 55.4115 1.94271 56.4844 2.17188C57.5573 2.40104 58.526 2.72917 59.3906 3.15625L58.3281 5.40625C57.599 5.07292 56.7969 4.78646 55.9219 4.54688C55.0573 4.29688 54.1198 4.17188 53.1094 4.17188ZM95.6719 9.90625H91.4062V25H88.8125V9.90625H85.7812V8.65625L88.8125 7.79688V6.65625C88.8125 5.21875 89.026 4.05208 89.4531 3.15625C89.8802 2.25 90.5 1.58333 91.3125 1.15625C92.125 0.729167 93.1146 0.515625 94.2812 0.515625C94.9375 0.515625 95.5365 0.572917 96.0781 0.6875C96.6302 0.802083 97.1146 0.932292 97.5312 1.07812L96.8594 3.125C96.5052 3.01042 96.1042 2.90625 95.6562 2.8125C95.2188 2.70833 94.7708 2.65625 94.3125 2.65625C93.3229 2.65625 92.5885 2.97917 92.1094 3.625C91.6406 4.26042 91.4062 5.26042 91.4062 6.625V7.875H95.6719V9.90625ZM106.438 9.90625H102.172V25H99.5781V9.90625H96.5469V8.65625L99.5781 7.79688V6.65625C99.5781 5.21875 99.7917 4.05208 100.219 3.15625C100.646 2.25 101.266 1.58333 102.078 1.15625C102.891 0.729167 103.88 0.515625 105.047 0.515625C105.703 0.515625 106.302 0.572917 106.844 0.6875C107.396 0.802083 107.88 0.932292 108.297 1.07812L107.625 3.125C107.271 3.01042 106.87 2.90625 106.422 2.8125C105.984 2.70833 105.536 2.65625 105.078 2.65625C104.089 2.65625 103.354 2.97917 102.875 3.625C102.406 4.26042 102.172 5.26042 102.172 6.625V7.875H106.438V9.90625ZM116.172 7.5625C117.63 7.5625 118.88 7.88542 119.922 8.53125C120.964 9.17708 121.76 10.0833 122.312 11.25C122.865 12.4062 123.141 13.7604 123.141 15.3125V16.9219H111.312C111.344 18.9323 111.844 20.4635 112.812 21.5156C113.781 22.5677 115.146 23.0938 116.906 23.0938C117.99 23.0938 118.948 22.9948 119.781 22.7969C120.615 22.599 121.479 22.3073 122.375 21.9219V24.2031C121.51 24.5885 120.651 24.8698 119.797 25.0469C118.953 25.224 117.953 25.3125 116.797 25.3125C115.151 25.3125 113.714 24.9792 112.484 24.3125C111.266 23.6354 110.318 22.6458 109.641 21.3438C108.964 20.0417 108.625 18.4479 108.625 16.5625C108.625 14.7188 108.932 13.125 109.547 11.7812C110.172 10.4271 111.047 9.38542 112.172 8.65625C113.307 7.92708 114.641 7.5625 116.172 7.5625ZM116.141 9.6875C114.755 9.6875 113.651 10.1406 112.828 11.0469C112.005 11.9531 111.516 13.2188 111.359 14.8438H120.422C120.411 13.8229 120.25 12.9271 119.938 12.1562C119.635 11.375 119.172 10.7708 118.547 10.3438C117.922 9.90625 117.12 9.6875 116.141 9.6875Z" fill="white"/>
<path d="M67.6306 22.5268C71.7266 25.3948 76.2326 22.4458 79.1006 18.3498C81.9686 14.2548 83.1976 9.01176 79.1026 6.14376C75.0066 3.27576 70.5006 6.22376 67.6326 10.3198C64.7646 14.4158 63.5346 19.6588 67.6306 22.5268Z" stroke="white" stroke-width="2"/>
<path d="M77.9556 7.78174C76.5626 8.02774 72.6296 10.1567 72.5476 13.7617C72.4646 17.3657 69.7606 20.3557 68.7776 20.8877C70.5806 20.9297 74.1036 18.5127 74.1856 14.9077C74.2686 11.3037 76.9716 8.31374 77.9556 7.78174Z" fill="white"/>
</svg>

